<?xml version="1.0" standalone="no"?>
<!DOCTYPE svg PUBLIC "-//W3C//DTD SVG 20010904//EN"
 "http://www.w3.org/TR/2001/REC-SVG-20010904/DTD/svg10.dtd">
<svg version="1.0" xmlns="http://www.w3.org/2000/svg"
 width="1133.000000pt" height="1280.000000pt" viewBox="0 0 1133.000000 1280.000000"
 preserveAspectRatio="xMidYMid meet">

<g transform="translate(0.000000,1280.000000) scale(0.100000,-0.100000)"
fill="#000000" stroke="none">
<path d="M5455 12794 c-287 -30 -468 -79 -677 -184 -468 -234 -851 -655 -1079
-1186 -29 -68 -72 -198 -101 -304 -154 -575 -173 -634 -321 -980 -293 -689
-342 -850 -401 -1300 -23 -172 -29 -197 -86 -355 -135 -372 -193 -705 -170
-987 11 -137 9 -163 -23 -221 -27 -49 -76 -80 -337 -214 -261 -134 -1270 -665
-1540 -811 -225 -121 -267 -149 -346 -235 -177 -191 -274 -454 -274 -743 0
-67 -10 -127 -46 -276 -71 -297 -70 -372 11 -709 62 -255 84 -352 99 -441 10
-57 28 -112 52 -160 50 -99 98 -226 124 -328 12 -47 40 -141 62 -208 35 -105
48 -132 90 -180 26 -32 76 -111 110 -177 68 -134 123 -219 181 -282 43 -47 64
-52 142 -32 52 13 101 1 134 -35 12 -12 46 -90 77 -172 102 -274 252 -556 310
-583 34 -15 59 -7 114 39 70 58 127 83 172 77 53 -7 111 -47 131 -90 26 -55
21 -107 -24 -224 -58 -151 -69 -191 -69 -247 0 -57 -18 -38 240 -252 231 -191
286 -229 330 -229 20 0 48 8 62 17 14 10 70 81 124 160 53 79 99 145 101 147
13 16 99 -160 158 -326 55 -155 72 -176 141 -175 50 1 105 -19 165 -60 20 -13
67 -33 104 -43 59 -16 78 -17 140 -7 57 9 83 8 131 -3 87 -21 186 -56 299
-108 55 -25 136 -53 180 -62 44 -9 173 -44 287 -76 114 -32 285 -79 380 -103
95 -25 209 -54 253 -66 133 -35 604 -72 644 -51 11 7 34 37 49 69 49 99 131
132 230 93 72 -29 101 -27 223 14 85 29 147 41 334 65 347 43 495 72 930 181
295 74 350 93 535 192 96 52 133 79 226 167 61 58 155 143 210 190 55 48 117
112 140 145 22 33 59 73 81 90 22 16 71 53 107 80 166 123 193 130 286 70 59
-37 84 -42 125 -23 19 9 28 9 37 0 18 -18 94 -14 136 7 50 26 60 39 127 168
53 103 163 260 272 390 34 41 51 53 83 58 78 13 90 33 190 325 24 69 52 135
63 148 33 35 79 30 130 -17 68 -62 99 -74 185 -69 74 4 75 4 116 49 22 25 73
106 111 179 55 105 86 150 147 216 99 106 164 235 263 518 21 60 52 129 70
155 113 164 100 132 225 536 10 33 44 150 74 260 31 110 69 237 86 283 34 93
36 127 15 238 -8 44 -19 124 -25 179 -6 55 -24 154 -41 220 -51 201 -157 562
-178 602 -55 108 -153 211 -277 289 -33 22 -490 278 -1016 569 l-955 530 -6
250 c-5 264 -21 402 -72 642 -92 435 -311 1025 -602 1623 l-104 215 6 65 c6
59 2 80 -45 235 -75 246 -372 1128 -426 1264 -122 305 -255 519 -449 720 -305
316 -699 512 -1180 586 -98 15 -411 27 -490 19z m-57 -86 c-3 -7 -45 -22 -94
-34 -142 -35 -296 -100 -408 -172 -108 -70 -377 -284 -547 -434 l-95 -85 -13
-94 c-57 -419 -61 -472 -70 -777 -6 -173 -7 -320 -4 -328 9 -24 31 -16 121 44
312 210 702 397 987 475 168 46 214 52 385 51 139 0 186 -4 297 -27 248 -52
497 -132 713 -232 69 -32 158 -73 199 -92 40 -18 72 -36 69 -38 -2 -3 -58 13
-122 36 -400 137 -941 261 -1141 262 -205 1 -635 -121 -940 -267 -161 -77
-474 -251 -575 -319 -140 -94 -265 -200 -425 -362 -188 -189 -217 -213 -150
-125 27 36 142 157 255 270 176 176 210 215 240 275 l35 70 6 310 c7 306 14
421 45 683 8 74 13 136 10 139 -10 10 -30 -13 -187 -209 -87 -110 -159 -196
-159 -191 0 13 107 200 162 283 237 355 620 668 979 800 120 44 285 83 422 99
5 1 7 -4 5 -11z m1296 -259 c311 -191 582 -495 736 -824 53 -112 97 -228 78
-204 -7 8 -82 109 -167 223 -85 113 -158 203 -162 199 -5 -5 -4 -48 1 -95 24
-206 40 -498 39 -693 l-1 -210 -18 145 c-19 153 -65 498 -105 786 -27 192 -45
245 -121 350 -54 77 -186 210 -277 279 -36 28 -66 56 -66 63 -1 18 6 15 63
-19z m-888 -1434 c237 -42 603 -128 808 -190 209 -63 310 -108 402 -180 203
-159 336 -309 495 -560 138 -218 249 -402 249 -415 0 -5 -6 -10 -14 -10 -8 0
-40 46 -71 103 -85 150 -250 396 -351 522 -161 200 -321 339 -458 400 -107 47
-522 153 -897 230 -252 51 -382 58 -541 30 -92 -16 -262 -72 -342 -112 -151
-76 -657 -366 -901 -517 -192 -118 -303 -203 -451 -348 -141 -137 -188 -159
-79 -36 72 82 195 192 323 287 104 78 491 332 830 544 178 112 431 220 590
251 91 18 308 19 408 1z m409 -1064 c61 -11 137 -29 170 -38 l59 -18 -95 -61
c-319 -205 -475 -267 -669 -268 -124 -1 -168 10 -308 75 -95 44 -342 184 -342
194 0 7 223 74 317 95 187 41 287 49 528 46 180 -3 254 -8 340 -25z m353 -103
c28 -12 52 -24 52 -28 0 -4 -18 -15 -40 -25 -40 -18 -67 -41 -58 -50 2 -3 56
7 119 21 148 33 319 31 412 -5 78 -31 165 -113 208 -196 47 -90 34 -101 -63
-51 -222 112 -456 51 -888 -235 -222 -147 -255 -163 -322 -157 -39 4 -57 12
-81 37 -31 30 -32 34 -32 116 0 71 -2 82 -14 71 -22 -23 -30 -94 -16 -148 15
-59 43 -91 101 -115 24 -10 44 -20 44 -23 0 -3 -22 -37 -50 -75 -78 -109 -84
-149 -77 -534 5 -273 22 -554 43 -697 3 -23 1 -67 -6 -97 -53 -258 -402 -225
-404 38 -1 33 5 168 13 300 18 312 11 772 -13 860 -17 61 -60 138 -96 170 -11
10 -20 21 -20 26 0 4 20 19 44 33 54 31 83 76 96 147 12 61 6 89 -18 89 -14 0
-16 -8 -14 -48 7 -100 -48 -162 -143 -162 -62 0 -104 19 -242 108 -317 203
-548 297 -786 319 -96 9 -61 21 63 22 112 1 221 -22 348 -75 119 -49 191 -89
372 -210 161 -107 218 -131 276 -116 60 16 74 101 27 155 -65 74 -458 280
-652 343 -66 22 -121 42 -121 46 0 3 24 11 53 18 28 6 70 20 92 30 58 26 174
70 186 70 13 0 142 -87 247 -167 93 -71 186 -121 288 -155 101 -33 270 -33
373 1 49 17 75 31 79 43 2 10 69 53 166 107 88 49 208 121 266 160 65 44 110
69 120 65 8 -3 39 -15 68 -26z m546 -342 c64 -32 159 -115 176 -156 20 -47 8
-131 -28 -201 -18 -34 -32 -70 -32 -80 0 -50 -102 -54 -225 -9 -74 27 -105 33
-175 34 -96 1 -333 -35 -459 -70 -96 -27 -111 -22 -111 32 0 39 41 91 98 125
20 12 84 68 142 125 97 96 113 107 210 150 195 87 301 100 404 50z m-2561 -37
c78 -26 153 -71 242 -146 39 -32 113 -90 165 -129 104 -77 116 -89 122 -119 2
-13 -6 -24 -27 -34 -24 -12 -44 -12 -115 -3 -47 6 -180 19 -297 28 l-211 18
-79 -23 c-116 -35 -153 -37 -185 -11 -51 40 -61 135 -27 246 25 83 26 83 114
151 l70 53 83 -5 c46 -3 111 -15 145 -26z m2442 -439 c56 -16 109 -54 141
-103 l27 -41 -24 -42 c-13 -24 -21 -46 -17 -49 3 -3 34 -10 69 -16 106 -17
138 -28 175 -61 45 -40 71 -91 83 -165 32 -202 -151 -457 -389 -539 -142 -50
-310 -63 -540 -44 -165 14 -219 26 -263 55 -77 53 -168 18 -244 -94 -8 -12
-33 26 -38 58 -3 20 -10 52 -16 71 -5 19 -18 114 -30 210 -11 96 -26 220 -33
275 -14 101 -10 128 19 139 8 3 15 14 15 24 0 28 28 92 57 130 26 35 71 62
103 62 16 0 20 -6 20 -36 l0 -37 41 47 c82 92 232 143 494 166 119 10 294 5
350 -10z m-2145 -15 c124 -19 241 -50 301 -80 63 -32 119 -82 119 -106 0 -16
8 -19 48 -19 81 0 143 -55 157 -141 12 -68 -49 -736 -68 -756 -9 -8 -37 16
-37 31 0 19 -62 72 -97 84 -26 9 -42 6 -93 -15 -40 -16 -97 -28 -157 -34 -52
-5 -111 -13 -131 -18 -77 -20 -176 -23 -272 -7 -167 28 -221 41 -229 55 -5 8
-16 11 -24 8 -19 -7 -102 22 -160 56 -112 66 -205 213 -215 339 -7 101 2 132
61 196 29 31 61 69 72 84 17 23 32 29 95 39 41 6 77 13 79 15 2 1 -11 26 -28
54 -17 28 -31 59 -31 70 0 46 135 139 220 151 84 12 295 9 390 -6z m1366
-1010 c14 -14 31 -25 37 -25 7 0 17 -4 23 -9 12 -12 210 -72 364 -111 69 -18
128 -37 133 -44 5 -8 10 -6 17 6 6 9 22 31 36 48 26 30 28 31 103 28 68 -3 76
-5 79 -24 4 -25 -96 -275 -145 -364 -123 -223 -270 -361 -450 -424 -225 -78
-448 -110 -768 -110 -353 -1 -543 33 -752 135 -82 39 -116 63 -171 118 -123
123 -246 329 -312 526 -34 102 -31 113 35 116 103 4 104 4 131 -56 25 -53 50
-67 39 -22 -6 21 -3 22 57 23 49 1 105 15 251 63 104 35 190 61 192 59 2 -2 0
-21 -5 -43 -32 -137 19 -276 137 -371 28 -23 60 -47 70 -52 17 -10 16 -12 -7
-37 -14 -15 -41 -36 -60 -46 l-35 -20 33 5 c42 7 72 30 123 95 23 28 45 51 50
51 25 0 -54 -126 -99 -159 -54 -38 -109 -45 -218 -26 -135 22 -210 48 -285 98
-82 55 -138 126 -225 281 -61 111 -72 126 -100 132 -55 10 -79 2 -77 -27 4
-64 160 -363 243 -466 143 -177 396 -276 724 -285 l110 -3 77 95 c118 144 141
144 243 -2 l61 -87 78 0 c166 -2 383 46 522 113 210 103 367 294 469 568 20
53 36 102 36 108 0 6 -27 10 -65 10 l-66 0 -33 -75 c-128 -280 -343 -443 -608
-462 -67 -5 -81 -3 -111 16 -44 27 -91 79 -118 132 -36 72 -15 64 56 -22 l70
-83 7 50 c6 45 14 55 87 126 49 47 83 88 86 105 4 16 11 39 16 52 5 13 8 26 5
28 -3 3 -44 -11 -91 -32 -72 -31 -93 -36 -123 -29 -20 4 -41 6 -46 5 -5 -1
-17 6 -27 15 -26 23 -25 114 0 169 39 85 116 165 159 165 7 0 24 -11 38 -25z
m-894 -52 c62 -63 78 -104 78 -201 0 -107 -5 -110 -111 -67 -46 19 -103 39
-126 45 -40 10 -43 13 -43 43 0 37 24 143 40 179 12 26 49 45 90 47 18 1 40
-13 72 -46z m-2455 -245 c-3 -7 -5 -2 -5 12 0 14 2 19 5 13 2 -7 2 -19 0 -25z
m4169 -110 c-18 -61 -122 -242 -160 -277 -14 -14 -26 -30 -26 -36 0 -7 -14
-30 -31 -51 -47 -59 -143 -203 -169 -254 -12 -25 -36 -62 -52 -83 -17 -21 -71
-120 -120 -220 -49 -100 -108 -206 -130 -235 -21 -29 -46 -69 -54 -88 -15 -35
-15 -35 7 -23 40 21 162 151 257 274 197 254 382 550 549 880 48 96 94 175
101 175 22 0 13 -56 -23 -140 -19 -45 -35 -90 -35 -100 0 -21 -132 -274 -233
-445 -94 -161 -166 -268 -315 -470 -69 -93 -149 -201 -177 -240 -80 -108 -98
-124 -202 -183 -13 -7 -23 -22 -23 -33 0 -45 -168 -184 -215 -177 -16 2 -19 9
-17 36 2 21 -3 41 -13 52 -15 17 -15 24 0 107 28 147 33 223 23 310 -9 70 -7
98 12 205 23 125 46 194 71 214 8 7 63 28 123 48 59 21 154 59 210 86 232 110
332 198 413 366 32 66 106 191 177 303 56 86 78 86 52 -1z m-4169 -40 c-3 -7
-5 -2 -5 12 0 14 2 19 5 13 2 -7 2 -19 0 -25z m1589 -340 c112 -186 261 -395
449 -628 55 -69 120 -153 145 -187 25 -34 49 -63 54 -63 12 0 -1 73 -19 113
-10 21 -14 25 -11 10 7 -37 -10 -26 -22 15 -6 20 -19 46 -27 57 -15 18 -15 17
0 -12 8 -18 11 -33 6 -33 -9 0 -41 72 -41 94 0 7 -25 47 -55 89 -30 42 -63 94
-75 117 -26 51 -37 125 -20 135 18 11 102 -10 314 -79 132 -43 192 -67 201
-81 27 -42 57 -229 65 -405 5 -96 14 -203 20 -238 11 -55 10 -65 -4 -81 -13
-14 -14 -24 -6 -45 11 -31 -2 -66 -25 -66 -25 0 -229 223 -352 385 -42 55 -84
106 -94 114 -11 7 -19 19 -19 25 0 6 -25 43 -56 81 -156 192 -353 473 -453
643 -36 59 -41 75 -31 87 7 8 14 15 16 15 1 0 19 -28 40 -62z m576 -272 c85
-38 184 -67 293 -85 l100 -18 13 -49 c37 -148 52 -272 51 -429 -1 -88 4 -189
10 -225 16 -85 79 -327 92 -352 16 -30 2 -34 -20 -7 -24 29 -73 212 -101 374
-17 94 -20 142 -15 225 6 93 3 123 -25 259 -17 85 -33 158 -36 162 -2 4 -35
14 -72 23 -137 31 -352 114 -352 136 0 13 0 13 62 -14z m1248 -18 c-67 -30
-171 -65 -234 -78 -51 -10 -56 -14 -61 -43 -46 -269 -52 -355 -35 -447 8 -45
5 -79 -25 -239 -19 -102 -44 -215 -55 -251 -12 -36 -24 -71 -26 -79 -2 -8 -7
-11 -10 -8 -3 3 6 58 21 123 49 220 65 360 53 467 -9 84 -8 114 17 288 15 107
28 195 30 197 6 6 330 89 350 90 11 0 0 -9 -25 -20z m4366 -856 c-5 -4 -66 26
-66 33 0 3 16 -3 35 -12 19 -9 33 -18 31 -21z m-3139 -904 c-2 -13 -4 -5 -4
17 -1 22 1 32 4 23 2 -10 2 -28 0 -40z m-20 -195 c-3 -10 -5 -2 -5 17 0 19 2
27 5 18 2 -10 2 -26 0 -35z m-3870 -235 c-3 -7 -5 -2 -5 12 0 14 2 19 5 13 2
-7 2 -19 0 -25z m3870 -185 c-2 -16 -4 -5 -4 22 0 28 2 40 4 28 2 -13 2 -35 0
-50z m-3800 -195 c-3 -8 -6 -5 -6 6 -1 11 2 17 5 13 3 -3 4 -12 1 -19z m3810
-20 c-3 -8 -6 -5 -6 6 -1 11 2 17 5 13 3 -3 4 -12 1 -19z m0 -335 c-3 -10 -5
-4 -5 12 0 17 2 24 5 18 2 -7 2 -21 0 -30z m-3850 -65 c-3 -8 -6 -5 -6 6 -1
11 2 17 5 13 3 -3 4 -12 1 -19z m-10 -90 c-3 -8 -6 -5 -6 6 -1 11 2 17 5 13 3
-3 4 -12 1 -19z m-40 -85 c-3 -10 -5 -4 -5 12 0 17 2 24 5 18 2 -7 2 -21 0
-30z m30 -55 c-3 -8 -6 -5 -6 6 -1 11 2 17 5 13 3 -3 4 -12 1 -19z m3870 -30
c-2 -13 -4 -5 -4 17 -1 22 1 32 4 23 2 -10 2 -28 0 -40z m-20 -10 c-3 -7 -5
-2 -5 12 0 14 2 19 5 13 2 -7 2 -19 0 -25z m-10 -110 c-3 -7 -5 -2 -5 12 0 14
2 19 5 13 2 -7 2 -19 0 -25z m-3860 -80 c-3 -8 -6 -5 -6 6 -1 11 2 17 5 13 3
-3 4 -12 1 -19z m-30 -40 c-3 -7 -5 -2 -5 12 0 14 2 19 5 13 2 -7 2 -19 0 -25z
m3880 -70 c-3 -7 -5 -2 -5 12 0 14 2 19 5 13 2 -7 2 -19 0 -25z m-3870 -120
c-3 -8 -6 -5 -6 6 -1 11 2 17 5 13 3 -3 4 -12 1 -19z m3860 -75 c-2 -16 -4 -3
-4 27 0 30 2 43 4 28 2 -16 2 -40 0 -55z m30 10 c-3 -10 -5 -2 -5 17 0 19 2
27 5 18 2 -10 2 -26 0 -35z m-3920 -65 c-3 -7 -5 -2 -5 12 0 14 2 19 5 13 2
-7 2 -19 0 -25z m10 -120 c-3 -8 -6 -5 -6 6 -1 11 2 17 5 13 3 -3 4 -12 1 -19z
m3880 -205 c-2 -16 -4 -5 -4 22 0 28 2 40 4 28 2 -13 2 -35 0 -50z m30 -200
c-3 -10 -5 -4 -5 12 0 17 2 24 5 18 2 -7 2 -21 0 -30z"/>
<path d="M6760 9725 c-94 -21 -213 -62 -306 -105 -171 -79 -448 -252 -497
-310 -33 -39 -37 -107 -9 -133 42 -39 100 -14 334 140 293 194 496 281 675
291 107 5 165 -9 250 -64 29 -18 53 -30 53 -26 0 5 -13 28 -28 53 -39 61 -113
124 -170 144 -65 23 -220 28 -302 10z"/>
<path d="M6570 8975 c-8 -2 -55 -9 -105 -15 -135 -18 -234 -53 -286 -99 -43
-39 -44 -40 -29 -68 50 -93 414 -162 628 -119 126 25 280 96 319 146 20 24 15
47 -17 84 -54 61 -91 70 -305 72 -104 2 -197 1 -205 -1z"/>
<path d="M4472 8954 c-79 -17 -137 -43 -180 -79 l-33 -28 33 -34 c49 -52 100
-77 238 -120 114 -35 135 -38 235 -37 213 1 426 58 468 125 28 46 -41 113
-148 144 -145 42 -480 58 -613 29z"/>
<path d="M5705 7250 c-7 -11 92 -156 128 -187 20 -18 20 -18 7 7 -21 40 -119
190 -124 190 -3 0 -8 -5 -11 -10z"/>
<path d="M5653 7217 c-29 -30 -103 -138 -103 -149 0 -25 26 1 77 77 55 83 67
118 26 72z"/>
</g>
</svg>
