<?xml version="1.0"?>
<svg xmlns="http://www.w3.org/2000/svg" xmlns:xlink="http://www.w3.org/1999/xlink" version="1.1" id="Layer_1" x="0px" y="0px" width="100%" viewBox="0 0 301 177" enable-background="new 0 0 301 177" xml:space="preserve" style="background-color:transparent;">
<path fill="none" opacity="1.000000" stroke="none" d=" M302.000000,69.000000   C302.000000,105.241219 302.000000,141.482437 302.000000,178.000000   C280.979919,178.000000 259.958618,178.000000 238.691574,177.672226   C245.850494,174.797012 253.911911,173.365875 260.526031,169.474701   C275.267334,160.802170 281.767670,144.892365 273.528809,128.106079   C267.660034,116.148712 257.889557,107.778122 247.047485,100.565323   C238.786804,95.069832 229.976822,90.968719 219.672089,92.038612   C215.347504,92.487610 210.955582,93.104004 207.886230,96.899925   C210.623337,99.449219 212.994583,101.720673 215.435974,103.914017   C217.895142,106.123314 220.496429,108.178131 222.901169,110.443214   C225.124100,112.537056 227.169159,114.819740 229.292572,117.019264   C228.941513,117.331825 228.590454,117.644386 228.239395,117.956947   C227.687271,117.655365 227.089340,117.415283 226.589706,117.043236   C212.320450,106.417259 197.170868,97.417015 179.927002,92.508545   C170.797668,89.909874 161.508743,88.200462 152.245544,92.060303   C143.055435,95.889694 134.781754,100.741295 130.887451,110.758949   C129.547684,114.205368 130.149933,115.992928 133.466812,117.903618   C154.606506,130.081146 173.363739,145.408127 191.453384,161.695343   C196.612686,166.340576 202.963333,169.927231 209.270355,172.950684   C214.460922,175.438934 220.395279,176.375656 226.000000,178.000000   C151.099228,178.000000 76.198448,178.000000 1.000000,178.000000   C1.000000,142.979675 1.000000,107.958496 1.330452,72.559219   C9.755964,77.276810 17.360794,83.527496 26.052797,87.216782   C41.914219,93.949081 57.305714,92.913811 71.467354,81.313469   C78.696846,75.391518 86.950340,70.542686 95.252304,66.182312   C99.347733,64.031303 104.666969,63.112442 109.317482,63.413254   C114.350601,63.738811 119.224678,66.225845 124.213036,67.608055   C132.370102,69.868286 140.341431,71.869026 149.184860,70.283112   C158.292664,68.649780 165.357880,63.841885 172.564102,58.907345   C179.592194,54.094772 186.795563,53.159534 193.982513,58.073750   C198.557465,61.201969 202.861420,64.793869 206.965103,68.531181   C218.764069,79.276703 231.802551,87.119904 248.088196,89.164642   C269.744904,91.883759 288.776733,88.428406 302.000000,69.000000  M149.313324,136.891998   C148.848724,136.642792 148.384140,136.393585 147.311707,135.810104   C136.098892,127.335075 124.723297,120.454796 109.407509,121.584930   C102.061356,122.126984 93.820801,119.432999 87.021744,116.094063   C79.702454,112.499641 73.627060,106.392822 66.941338,101.474060   C65.149422,100.155739 62.973228,98.023079 61.209457,98.234375   C53.547016,99.152283 45.971786,100.798218 38.136036,102.221123   C38.700520,103.149643 39.463932,104.537430 40.350182,105.841766   C46.198513,114.449051 52.105648,123.016510 57.928989,131.640594   C62.470470,138.366287 66.347961,145.631088 71.516350,151.825439   C86.260590,169.496475 106.884224,174.580627 128.465805,175.778290   C143.312424,176.602219 158.287247,175.584946 173.179871,174.871017   C178.846558,174.599365 184.443619,172.875565 191.219543,171.597153   C189.397034,170.233887 188.681534,169.698669 187.354233,168.865662   C179.702164,161.881287 172.218536,154.698975 164.333130,147.988800   C159.798157,144.129715 154.612473,141.035278 149.574341,137.500336   C149.574341,137.500336 149.414719,137.430222 149.313324,136.891998  z"/>
<path fill="#D83732" opacity="1.000000" stroke="none" d=" M302.000000,68.600006   C288.776733,88.428406 269.744904,91.883759 248.088196,89.164642   C231.802551,87.119904 218.764069,79.276703 206.965103,68.531181   C202.861420,64.793869 198.557465,61.201969 193.982513,58.073750   C186.795563,53.159534 179.592194,54.094772 172.564102,58.907345   C165.357880,63.841885 158.292664,68.649780 149.184860,70.283112   C140.341431,71.869026 132.370102,69.868286 124.213036,67.608055   C119.224678,66.225845 114.350601,63.738811 109.317482,63.413254   C104.666969,63.112442 99.347733,64.031303 95.252304,66.182312   C86.950340,70.542686 78.696846,75.391518 71.467354,81.313469   C57.305714,92.913811 41.914219,93.949081 26.052797,87.216782   C17.360794,83.527496 9.755964,77.276810 1.330452,72.090561   C1.000000,71.555557 1.000000,71.111107 1.430501,70.334320   C6.433246,70.334435 11.002388,70.896309 15.578291,70.958191   C32.226360,71.183334 44.609020,63.547028 54.371468,50.385147   C60.738403,41.801147 67.328720,33.181229 75.020149,25.835030   C83.595131,17.644943 94.659752,14.993670 106.418884,17.839460   C115.216713,19.968596 123.933563,22.503746 132.556000,25.265457   C140.623062,27.849281 147.615280,27.287867 154.290436,21.370504   C163.091049,13.568985 170.909744,4.221401 183.000000,1.000000   C189.687637,1.000000 196.375290,1.000000 203.679260,1.357496   C216.238815,3.563389 223.964432,11.680500 230.684326,20.539669   C238.917969,31.394499 245.802490,43.282162 254.164993,54.026970   C261.868683,63.925278 271.653748,71.862167 285.201935,70.744583   C290.920319,70.272888 296.407654,66.999748 302.000000,65.000000   C302.000000,66.066673 302.000000,67.133339 302.000000,68.600006  M145.562729,65.976143   C147.863266,65.748909 150.417816,66.089371 152.419312,65.193802   C160.105438,61.754669 167.759644,58.186661 175.153610,54.166210   C185.146713,48.732502 193.546249,48.955845 202.396133,55.891411   C209.575089,61.517487 216.575790,67.371353 223.643234,73.139267   C238.650665,85.387199 255.118835,91.373489 274.385651,84.683296   C280.020233,82.726753 285.487518,80.288536 291.031494,78.071083   C290.818329,77.488953 290.605164,76.906815 290.392029,76.324684   C287.412537,76.996071 284.443634,77.719315 281.451752,78.330032   C267.111603,81.257217 252.948792,81.804314 240.029205,73.469124   C231.113083,67.716797 222.466522,61.533356 213.850433,55.332844   C204.361374,48.504101 194.532486,43.024754 182.223587,43.953457   C173.254333,44.630177 165.681915,48.722897 158.296265,53.218800   C149.552582,58.541386 140.588470,60.069050 130.795624,56.481888   C126.290413,54.831608 121.601768,53.627064 116.928726,52.500729   C104.950340,49.613590 93.682350,50.415714 83.376663,58.271343   C76.124855,63.799122 68.348228,68.639526 60.793324,73.768272   C51.230686,80.260010 41.052097,82.905663 29.647127,79.167046   C26.203878,78.038338 22.511351,77.670067 18.933010,76.953461   C29.003210,84.980629 39.865776,88.941597 52.629192,85.293404   C61.943249,82.631157 68.691948,76.152344 76.003883,70.477615   C86.604965,62.250195 98.217468,58.325695 111.795525,60.839222   C122.690269,62.856018 133.694214,64.282867 145.562729,65.976143  M224.525497,22.978153   C222.505737,20.993986 220.545593,18.944427 218.454880,17.038061   C212.470764,11.581632 205.346512,7.835758 197.329330,8.279762   C181.499283,9.156456 167.759811,15.521593 156.619629,26.950409   C152.754456,30.915741 152.353729,36.174324 155.103149,39.591312   C157.887741,43.052021 163.144684,43.862316 167.852783,41.631626   C170.547165,40.355022 173.184708,38.700672 176.037292,38.060268   C188.489166,35.264828 199.910583,38.339405 210.985245,44.228661   C217.210266,47.538986 223.802963,50.426487 230.560287,52.335209   C233.268051,53.100063 237.985794,51.625854 239.699295,49.492580   C241.072845,47.782547 240.278885,42.872944 238.715561,40.546700   C234.661972,34.514858 229.653122,29.124979 224.525497,22.978153  M77.386772,30.816746   C69.077087,36.861183 62.962013,44.583187 59.805862,54.419907   C59.317444,55.942146 59.273251,58.529736 60.178185,59.348366   C61.375458,60.431450 63.862587,60.892529 65.526009,60.494724   C69.384911,59.571861 73.178802,58.194859 76.826561,56.605957   C87.232552,52.073269 97.580956,47.262474 109.379204,49.000851   C115.271912,49.869095 121.079109,51.309914 126.933723,52.446758   C131.860886,53.403511 137.503983,50.639492 139.967178,46.129925   C142.084869,42.252895 141.160492,37.296341 137.033066,33.558392   C134.497147,31.261755 131.556641,29.235332 128.479019,27.746643   C119.484848,23.396038 109.741066,24.067003 100.096870,23.878515   C91.945160,23.719198 84.740585,26.147705 77.386772,30.816746  z"/>
<path fill="none" opacity="1.000000" stroke="none" d=" M182.531342,1.000000   C170.909744,4.221401 163.091049,13.568985 154.290436,21.370504   C147.615280,27.287867 140.623062,27.849281 132.556000,25.265457   C123.933563,22.503746 115.216713,19.968596 106.418884,17.839460   C94.659752,14.993670 83.595131,17.644943 75.020149,25.835030   C67.328720,33.181229 60.738403,41.801147 54.371468,50.385147   C44.609020,63.547028 32.226360,71.183334 15.578291,70.958191   C11.002388,70.896309 6.433246,70.334435 1.430501,70.000992   C1.000000,47.040154 1.000000,24.080305 1.000000,1.000000   C61.354176,1.000000 121.708427,1.000000 182.531342,1.000000  z"/>
<path fill="#E08DAE" opacity="1.000000" stroke="none" d=" M226.460632,178.000000   C220.395279,176.375656 214.460922,175.438934 209.270355,172.950684   C202.963333,169.927231 196.612686,166.340576 191.453384,161.695343   C173.363739,145.408127 154.606506,130.081146 133.466812,117.903618   C130.149933,115.992928 129.547684,114.205368 130.887451,110.758949   C134.781754,100.741295 143.055435,95.889694 152.245544,92.060303   C161.508743,88.200462 170.797668,89.909874 179.927002,92.508545   C197.170868,97.417015 212.320450,106.417259 226.589706,117.043236   C227.089340,117.415283 227.687271,117.655365 228.239395,117.956947   C228.590454,117.644386 228.941513,117.331825 229.292572,117.019264   C227.169159,114.819740 225.124100,112.537056 222.901169,110.443214   C220.496429,108.178131 217.895142,106.123314 215.435974,103.914017   C212.994583,101.720673 210.623337,99.449219 207.886230,96.899925   C210.955582,93.104004 215.347504,92.487610 219.672089,92.038612   C229.976822,90.968719 238.786804,95.069832 247.047485,100.565323   C257.889557,107.778122 267.660034,116.148712 273.528809,128.106079   C281.767670,144.892365 275.267334,160.802170 260.526031,169.474701   C253.911911,173.365875 245.850494,174.797012 238.222916,177.672226   C234.307098,178.000000 230.614182,178.000000 226.460632,178.000000  M268.374908,152.269989   C257.555145,161.568024 245.178482,164.541718 231.333862,161.236343   C216.965073,157.805847 204.370636,150.835373 193.552170,140.943268   C183.299622,131.568665 172.645676,122.974556 159.579132,117.805061   C157.883377,117.134178 156.293213,116.190605 154.670471,115.342094   C149.717346,112.752151 144.684769,110.242355 143.075623,104.055038   C141.190262,105.385719 139.648849,106.364342 138.229401,107.495949   C133.926407,110.926346 134.159790,113.436989 138.900192,115.936760   C144.343033,118.806938 150.125900,121.206314 155.115005,124.726013   C164.987976,131.691177 174.590393,139.072144 183.972504,146.690292   C191.141830,152.511688 197.069794,160.165100 204.838058,164.882278   C220.787552,174.567337 238.005539,176.300873 255.114426,167.341263   C261.421844,164.038208 267.201660,159.672134 269.330170,151.915146   C269.215668,151.937866 269.101196,151.960587 268.374908,152.269989  M161.882019,96.005028   C161.063751,96.121658 160.115326,96.012840 159.451111,96.396317   C157.273331,97.653610 153.614365,98.938248 153.465591,100.493668   C153.255890,102.686180 155.128372,105.845665 157.073273,107.332130   C162.850372,111.747505 169.171509,115.441902 175.146820,119.609062   C186.537079,127.552567 198.034439,135.364639 209.106705,143.734787   C217.588303,150.146515 226.497223,154.536499 237.375839,154.015076   C242.661682,153.761703 244.411057,151.562347 242.629669,146.627716   C241.984146,144.839600 240.569534,143.247925 239.252960,141.795898   C227.219101,128.524094 212.841141,118.083290 197.810150,108.619148   C187.161804,101.914497 176.199020,95.333359 161.882019,96.005028  M227.498825,105.998840   C236.970352,111.933998 245.364594,118.855034 252.043045,128.112503   C255.471786,132.865295 260.945892,136.263336 265.868469,139.746811   C267.420471,140.845093 270.182678,140.233170 272.391022,140.403961   C271.941162,138.121872 272.029755,135.530212 270.931946,133.620575   C268.464813,129.328873 265.485779,125.320122 262.577881,121.295326   C255.099319,110.944244 245.963760,102.622124 233.156860,99.733521   C229.084137,98.814903 224.549820,96.236015 219.198029,100.104820   C222.224396,102.233185 224.580704,103.890312 227.498825,105.998840  M230.068024,119.199104   C230.306931,119.118294 230.545853,119.037491 230.784760,118.956680   C230.516327,118.871727 230.247879,118.786774 230.068024,119.199104  z"/>
<path fill="none" opacity="1.000000" stroke="none" d=" M302.000000,64.531342   C296.407654,66.999748 290.920319,70.272888 285.201935,70.744583   C271.653748,71.862167 261.868683,63.925278 254.164993,54.026970   C245.802490,43.282162 238.917969,31.394499 230.684326,20.539669   C223.964432,11.680500 216.238815,3.563389 204.147797,1.357496   C236.578217,1.000000 269.156433,1.000000 302.000000,1.000000   C302.000000,22.020151 302.000000,43.041416 302.000000,64.531342  z"/>
<path fill="#D83733" opacity="1.000000" stroke="none" d=" M187.966019,169.163452   C188.681534,169.698669 189.397034,170.233887 191.219543,171.597153   C184.443619,172.875565 178.846558,174.599365 173.179871,174.871017   C158.287247,175.584946 143.312424,176.602219 128.465805,175.778290   C106.884224,174.580627 86.260590,169.496475 71.516350,151.825439   C66.347961,145.631088 62.470470,138.366287 57.928989,131.640594   C52.105648,123.016510 46.198513,114.449051 40.350182,105.841766   C39.463932,104.537430 38.700520,103.149643 38.136036,102.221123   C45.971786,100.798218 53.547016,99.152283 61.209457,98.234375   C62.973228,98.023079 65.149422,100.155739 66.941338,101.474060   C73.627060,106.392822 79.702454,112.499641 87.021744,116.094063   C93.820801,119.432999 102.061356,122.126984 109.407509,121.584930   C124.723297,120.454796 136.098892,127.335075 147.666382,136.291199   C148.485596,136.991608 148.950165,137.210907 149.414719,137.430222   C149.414719,137.430222 149.574341,137.500336 149.420044,137.876251   C150.110901,139.600525 150.920441,140.972824 151.807449,142.293060   C155.497086,147.784760 159.436172,153.125183 162.833801,158.790939   C165.042709,162.474457 164.038071,163.770538 159.715210,163.959305   C158.554138,164.010025 157.377197,164.052689 156.226303,163.927109   C144.411407,162.637894 132.575989,161.499054 120.794388,159.952026   C105.668594,157.965881 91.237465,153.789398 78.936684,144.288757   C73.097160,139.778534 67.643860,134.768280 62.009575,129.739929   C61.872253,129.218506 61.740948,128.941681 61.609642,128.664871   C61.735199,129.113205 61.860752,129.561523 62.014771,130.370636   C67.292938,143.134583 75.950546,152.607727 87.971695,158.398438   C114.602005,171.226440 143.183914,173.774277 172.208054,172.786926   C177.495682,172.607040 182.715103,170.422562 187.966019,169.163452  M66.486694,127.944595   C73.411682,136.144180 82.076012,141.771790 92.075287,145.543182   C106.340569,150.923569 120.302711,157.381912 136.060730,157.057388   C140.202774,156.972092 144.270706,156.455719 146.216797,152.237137   C148.366409,147.577408 147.081451,142.711243 143.242584,140.106964   C137.320740,136.089615 130.825165,132.542953 124.082642,130.219360   C117.756348,128.039200 110.745552,127.930588 104.121086,126.512726   C89.971558,123.484222 78.261765,115.596268 66.722763,107.369232   C65.114342,106.222488 62.868156,105.970253 60.917202,105.303932   C60.283230,107.421394 58.629620,109.880867 59.203918,111.593056   C61.023232,117.017029 63.674923,122.161804 66.486694,127.944595  z"/>
<path fill="#99252A" opacity="1.000000" stroke="none" d=" M187.660126,169.014557   C182.715103,170.422562 177.495682,172.607040 172.208054,172.786926   C143.183914,173.774277 114.602005,171.226440 87.971695,158.398438   C75.950546,152.607727 67.292938,143.134583 62.022270,130.365082   C62.001308,129.998749 62.015591,129.984543 62.015594,129.984543   C67.643860,134.768280 73.097160,139.778534 78.936684,144.288757   C91.237465,153.789398 105.668594,157.965881 120.794388,159.952026   C132.575989,161.499054 144.411407,162.637894 156.226303,163.927109   C157.377197,164.052689 158.554138,164.010025 159.715210,163.959305   C164.038071,163.770538 165.042709,162.474457 162.833801,158.790939   C159.436172,153.125183 155.497086,147.784760 151.807449,142.293060   C150.920441,140.972824 150.110901,139.600525 149.492706,137.924408   C154.612473,141.035278 159.798157,144.129715 164.333130,147.988800   C172.218536,154.698975 179.702164,161.881287 187.660126,169.014557  z"/>
<path fill="#99252A" opacity="1.000000" stroke="none" d=" M149.364014,137.161102   C148.950165,137.210907 148.485596,136.991608 147.970291,136.458328   C148.384140,136.393585 148.848724,136.642792 149.364014,137.161102  z"/>
<path fill="#99262A" opacity="1.000000" stroke="none" d=" M145.106216,65.973831   C133.694214,64.282867 122.690269,62.856018 111.795525,60.839222   C98.217468,58.325695 86.604965,62.250195 76.003883,70.477615   C68.691948,76.152344 61.943249,82.631157 52.629192,85.293404   C39.865776,88.941597 29.003210,84.980629 18.933010,76.953461   C22.511351,77.670067 26.203878,78.038338 29.647127,79.167046   C41.052097,82.905663 51.230686,80.260010 60.793324,73.768272   C68.348228,68.639526 76.124855,63.799122 83.376663,58.271343   C93.682350,50.415714 104.950340,49.613590 116.928726,52.500729   C121.601768,53.627064 126.290413,54.831608 130.795624,56.481888   C140.588470,60.069050 149.552582,58.541386 158.296265,53.218800   C165.681915,48.722897 173.254333,44.630177 182.223587,43.953457   C194.532486,43.024754 204.361374,48.504101 213.850433,55.332844   C222.466522,61.533356 231.113083,67.716797 240.029205,73.469124   C252.948792,81.804314 267.111603,81.257217 281.451752,78.330032   C284.443634,77.719315 287.412537,76.996071 290.392029,76.324684   C290.605164,76.906815 290.818329,77.488953 291.031494,78.071083   C285.487518,80.288536 280.020233,82.726753 274.385651,84.683296   C255.118835,91.373489 238.650665,85.387199 223.643234,73.139267   C216.575790,67.371353 209.575089,61.517487 202.396133,55.891411   C193.546249,48.955845 185.146713,48.732502 175.153610,54.166210   C167.759644,58.186661 160.105438,61.754669 152.419312,65.193802   C150.417816,66.089371 147.863266,65.748909 145.106216,65.973831  z"/>
<path fill="#E3737C" opacity="1.000000" stroke="none" d=" M224.775543,23.228504   C229.653122,29.124979 234.661972,34.514858 238.715561,40.546700   C240.278885,42.872944 241.072845,47.782547 239.699295,49.492580   C237.985794,51.625854 233.268051,53.100063 230.560287,52.335209   C223.802963,50.426487 217.210266,47.538986 210.985245,44.228661   C199.910583,38.339405 188.489166,35.264828 176.037292,38.060268   C173.184708,38.700672 170.547165,40.355022 167.852783,41.631626   C163.144684,43.862316 157.887741,43.052021 155.103149,39.591312   C152.353729,36.174324 152.754456,30.915741 156.619629,26.950409   C167.759811,15.521593 181.499283,9.156456 197.329330,8.279762   C205.346512,7.835758 212.470764,11.581632 218.454880,17.038061   C220.545593,18.944427 222.505737,20.993986 224.775543,23.228504  M187.493164,16.711262   C184.059814,18.302235 180.359650,19.500132 177.269958,21.597397   C174.322647,23.598032 171.152679,26.560963 173.022781,30.626705   C174.970566,34.861340 178.974091,32.808567 182.279968,32.363747   C182.605270,32.319973 182.923798,32.207901 183.238586,32.106266   C194.400375,28.502680 205.043488,29.247265 215.241714,35.459183   C216.783768,36.398476 219.152115,35.981266 221.138245,36.191513   C220.703537,34.226997 220.807571,31.889874 219.747818,30.357660   C212.142731,19.362030 201.171661,15.644456 187.493164,16.711262  z"/>
<path fill="#E3747C" opacity="1.000000" stroke="none" d=" M77.687653,30.614525   C84.740585,26.147705 91.945160,23.719198 100.096870,23.878515   C109.741066,24.067003 119.484848,23.396038 128.479019,27.746643   C131.556641,29.235332 134.497147,31.261755 137.033066,33.558392   C141.160492,37.296341 142.084869,42.252895 139.967178,46.129925   C137.503983,50.639492 131.860886,53.403511 126.933723,52.446758   C121.079109,51.309914 115.271912,49.869095 109.379204,49.000851   C97.580956,47.262474 87.232552,52.073269 76.826561,56.605957   C73.178802,58.194859 69.384911,59.571861 65.526009,60.494724   C63.862587,60.892529 61.375458,60.431450 60.178185,59.348366   C59.273251,58.529736 59.317444,55.942146 59.805862,54.419907   C62.962013,44.583187 69.077087,36.861183 77.687653,30.614525  M102.065430,29.502941   C94.004845,30.706223 86.512749,33.181980 80.959190,39.553215   C79.885269,40.785255 79.448959,42.573074 78.241653,45.104321   C83.049767,44.330521 86.272491,43.694885 89.524986,43.312450   C96.587006,42.482075 103.654549,41.661572 110.740112,41.087269   C113.485512,40.864750 116.352158,41.737537 119.036705,41.311646   C120.708488,41.046429 123.504211,39.121937 123.397835,38.227180   C123.181717,36.409527 121.662148,33.751347 120.109543,33.266792   C114.493958,31.514219 108.642036,30.518917 102.065430,29.502941  z"/>
<path fill="#BE668A" opacity="1.000000" stroke="none" d=" M269.019409,152.015823   C267.201660,159.672134 261.421844,164.038208 255.114426,167.341263   C238.005539,176.300873 220.787552,174.567337 204.838058,164.882278   C197.069794,160.165100 191.141830,152.511688 183.972504,146.690292   C174.590393,139.072144 164.987976,131.691177 155.115005,124.726013   C150.125900,121.206314 144.343033,118.806938 138.900192,115.936760   C134.159790,113.436989 133.926407,110.926346 138.229401,107.495949   C139.648849,106.364342 141.190262,105.385719 143.075623,104.055038   C144.684769,110.242355 149.717346,112.752151 154.670471,115.342094   C156.293213,116.190605 157.883377,117.134178 159.579132,117.805061   C172.645676,122.974556 183.299622,131.568665 193.552170,140.943268   C204.370636,150.835373 216.965073,157.805847 231.333862,161.236343   C245.178482,164.541718 257.555145,161.568024 268.688049,152.135422   C269.001160,152.000854 269.019409,152.015823 269.019409,152.015823  z"/>
<path fill="#E3A3BE" opacity="1.000000" stroke="none" d=" M162.327637,96.003021   C176.199020,95.333359 187.161804,101.914497 197.810150,108.619148   C212.841141,118.083290 227.219101,128.524094 239.252960,141.795898   C240.569534,143.247925 241.984146,144.839600 242.629669,146.627716   C244.411057,151.562347 242.661682,153.761703 237.375839,154.015076   C226.497223,154.536499 217.588303,150.146515 209.106705,143.734787   C198.034439,135.364639 186.537079,127.552567 175.146820,119.609062   C169.171509,115.441902 162.850372,111.747505 157.073273,107.332130   C155.128372,105.845665 153.255890,102.686180 153.465591,100.493668   C153.614365,98.938248 157.273331,97.653610 159.451111,96.396317   C160.115326,96.012840 161.063751,96.121658 162.327637,96.003021  M190.667984,109.820869   C185.690796,106.474670 180.579865,103.712975 174.180634,105.622719   C176.396469,114.265884 214.576599,139.700562 223.449783,138.052368   C215.159195,125.505165 202.805527,118.309227 190.667984,109.820869  z"/>
<path fill="#E3A3BE" opacity="1.000000" stroke="none" d=" M227.217926,105.773140   C224.580704,103.890312 222.224396,102.233185 219.198029,100.104820   C224.549820,96.236015 229.084137,98.814903 233.156860,99.733521   C245.963760,102.622124 255.099319,110.944244 262.577881,121.295326   C265.485779,125.320122 268.464813,129.328873 270.931946,133.620575   C272.029755,135.530212 271.941162,138.121872 272.391022,140.403961   C270.182678,140.233170 267.420471,140.845093 265.868469,139.746811   C260.945892,136.263336 255.471786,132.865295 252.043045,128.112503   C245.364594,118.855034 236.970352,111.933998 227.217926,105.773140  M262.223419,125.493141   C252.290558,111.256599 241.892349,103.266731 235.003159,105.040901   C236.069656,106.276955 236.943604,107.419785 237.948456,108.432777   C243.304047,113.831772 248.641266,119.250977 254.100449,124.543945   C255.740723,126.134293 257.596680,127.676147 259.639435,128.626160   C261.505676,129.494125 263.489197,129.221298 262.223419,125.493141  z"/>
<path fill="none" opacity="1.000000" stroke="none" d=" M230.023743,118.950462   C230.247879,118.786774 230.516327,118.871727 230.784760,118.956680   C230.545853,119.037491 230.306931,119.118294 230.023743,118.950462  z"/>
<path fill="#BE668A" opacity="1.000000" stroke="none" d=" M268.993927,151.992081   C269.101196,151.960587 269.215668,151.937866 269.174805,151.965485   C269.019409,152.015823 269.001160,152.000854 268.993927,151.992081  z"/>
<path fill="#E3737C" opacity="1.000000" stroke="none" d=" M66.245720,127.679565   C63.674923,122.161804 61.023232,117.017029 59.203918,111.593056   C58.629620,109.880867 60.283230,107.421394 60.917202,105.303932   C62.868156,105.970253 65.114342,106.222488 66.722763,107.369232   C78.261765,115.596268 89.971558,123.484222 104.121086,126.512726   C110.745552,127.930588 117.756348,128.039200 124.082642,130.219360   C130.825165,132.542953 137.320740,136.089615 143.242584,140.106964   C147.081451,142.711243 148.366409,147.577408 146.216797,152.237137   C144.270706,156.455719 140.202774,156.972092 136.060730,157.057388   C120.302711,157.381912 106.340569,150.923569 92.075287,145.543182   C82.076012,141.771790 73.411682,136.144180 66.245720,127.679565  M100.570641,132.010040   C93.392426,130.588196 87.157509,125.091606 78.802971,127.266060   C80.882797,130.113464 83.047462,133.116852 85.949471,134.278992   C94.970306,137.891449 104.192802,141.063614 113.497269,143.876694   C117.866684,145.197723 122.605377,145.766495 127.171730,145.742050   C129.068161,145.731903 130.951538,143.280518 132.840851,141.939270   C131.587524,140.345383 130.596634,138.369736 129.001465,137.273087   C127.615555,136.320297 125.559525,136.283508 123.776367,135.977478   C116.307053,134.695526 108.828979,133.464600 100.570641,132.010040  z"/>
<path fill="#99252A" opacity="1.000000" stroke="none" d=" M61.993809,130.004303   C61.860752,129.561523 61.735199,129.113205 61.609642,128.664871   C61.740948,128.941681 61.872253,129.218506 62.009575,129.739929   C62.015591,129.984543 62.001308,129.998749 61.993809,130.004303  z"/>
<path fill="#E4AFB5" opacity="1.000000" stroke="none" d=" M187.885452,16.564064   C201.171661,15.644456 212.142731,19.362030 219.747818,30.357660   C220.807571,31.889874 220.703537,34.226997 221.138245,36.191513   C219.152115,35.981266 216.783768,36.398476 215.241714,35.459183   C205.043488,29.247265 194.400375,28.502680 183.238586,32.106266   C182.923798,32.207901 182.605270,32.319973 182.279968,32.363747   C178.974091,32.808567 174.970566,34.861340 173.022781,30.626705   C171.152679,26.560963 174.322647,23.598032 177.269958,21.597397   C180.359650,19.500132 184.059814,18.302235 187.885452,16.564064  z"/>
<path fill="#E4AFB5" opacity="1.000000" stroke="none" d=" M102.472382,29.370354   C108.642036,30.518917 114.493958,31.514219 120.109543,33.266792   C121.662148,33.751347 123.181717,36.409527 123.397835,38.227180   C123.504211,39.121937 120.708488,41.046429 119.036705,41.311646   C116.352158,41.737537 113.485512,40.864750 110.740112,41.087269   C103.654549,41.661572 96.587006,42.482075 89.524986,43.312450   C86.272491,43.694885 83.049767,44.330521 78.241653,45.104321   C79.448959,42.573074 79.885269,40.785255 80.959190,39.553215   C86.512749,33.181980 94.004845,30.706223 102.472382,29.370354  z"/>
<path fill="#E4C9D4" opacity="1.000000" stroke="none" d=" M190.998474,109.979523   C202.805527,118.309227 215.159195,125.505165 223.449783,138.052368   C214.576599,139.700562 176.396469,114.265884 174.180634,105.622719   C180.579865,103.712975 185.690796,106.474670 190.998474,109.979523  z"/>
<path fill="#E4C9D4" opacity="1.000000" stroke="none" d=" M262.392609,125.822662   C263.489197,129.221298 261.505676,129.494125 259.639435,128.626160   C257.596680,127.676147 255.740723,126.134293 254.100449,124.543945   C248.641266,119.250977 243.304047,113.831772 237.948456,108.432777   C236.943604,107.419785 236.069656,106.276955 235.003159,105.040901   C241.892349,103.266731 252.290558,111.256599 262.392609,125.822662  z"/>
<path fill="#E4AFB5" opacity="1.000000" stroke="none" d=" M100.962372,132.112518   C108.828979,133.464600 116.307053,134.695526 123.776367,135.977478   C125.559525,136.283508 127.615555,136.320297 129.001465,137.273087   C130.596634,138.369736 131.587524,140.345383 132.840851,141.939270   C130.951538,143.280518 129.068161,145.731903 127.171730,145.742050   C122.605377,145.766495 117.866684,145.197723 113.497269,143.876694   C104.192802,141.063614 94.970306,137.891449 85.949471,134.278992   C83.047462,133.116852 80.882797,130.113464 78.802971,127.266060   C87.157509,125.091606 93.392426,130.588196 100.962372,132.112518  z"/>
</svg>
